HIERARCHY
ROOT Hips
{
	OFFSET 0.000000 0.000000 0.000000
	CHANNELS 6 Xposition Yposition Zposition Xrotation Yrotation Zrotation
	JOINT LeftUpLeg_virtual
	{
		OFFSET 0.000000 0.000000 0.000000
		CHANNELS 3 Xrotation Yrotation Zrotation
		JOINT LeftUpLeg
		{
			OFFSET 10.205400 -3.823500 0.155100
			CHANNELS 3 Xrotation Yrotation Zrotation
			JOINT LeftLeg
			{
				OFFSET 0.708757 -12.982077 0.567790
				CHANNELS 3 Xrotation Yrotation Zrotation
				JOINT LeftFoot
				{
					OFFSET -0.708756 -10.717838 -2.184338
					CHANNELS 3 Xrotation Yrotation Zrotation
					JOINT LeftToeBase
					{
						OFFSET 0.108149 -7.191104 7.560241
						CHANNELS 3 Xrotation Yrotation Zrotation
						JOINT LeftToe_End
						{
							OFFSET 0.070230 0.081724 4.490308
							CHANNELS 3 Xrotation Yrotation Zrotation
							End Site
							{
								OFFSET 0 0 0
							}
						}
					}
				}
			}
		}
	}
	JOINT RightUpLeg_virtual
	{
		OFFSET 0.000000 0.000000 0.000000
		CHANNELS 3 Xrotation Yrotation Zrotation
		JOINT RightUpLeg
		{
			OFFSET -10.205400 -3.823500 0.005500
			CHANNELS 3 Xrotation Yrotation Zrotation
			JOINT RightLeg
			{
				OFFSET -0.708756 -12.982134 0.610632
				CHANNELS 3 Xrotation Yrotation Zrotation
				JOINT RightFoot
				{
					OFFSET 0.708754 -10.717769 -1.945823
					CHANNELS 3 Xrotation Yrotation Zrotation
					JOINT RightToeBase
					{
						OFFSET -0.108140 -7.191069 7.372968
						CHANNELS 3 Xrotation Yrotation Zrotation
						JOINT RightToe_End
						{
							OFFSET -0.070227 0.081735 4.479403
							CHANNELS 3 Xrotation Yrotation Zrotation
							End Site
							{
								OFFSET 0 0 0
							}
						}
					}
				}
			}
		}
	}
	JOINT Spine_virtual
	{
		OFFSET 0.000000 0.000000 0.000000
		CHANNELS 3 Xrotation Yrotation Zrotation
		JOINT Spine
		{
			OFFSET 0.000000 6.876099 0.125700
			CHANNELS 3 Xrotation Yrotation Zrotation
			JOINT Spine1
			{
				OFFSET 0.000000 5.730043 0.104720
				CHANNELS 3 Xrotation Yrotation Zrotation
				JOINT Spine1_split
				{
					OFFSET 0.000000 5.730043 0.104720
					CHANNELS 3 Xrotation Yrotation Zrotation
					JOINT Spine2
					{
						OFFSET 0.000000 5.730043 0.104720
						CHANNELS 3 Xrotation Yrotation Zrotation
						JOINT Neck_virtual
						{
							OFFSET 0.000000 0.000000 0.000000
							CHANNELS 3 Xrotation Yrotation Zrotation
							JOINT Neck
							{
								OFFSET 0.000000 10.314075 0.188496
								CHANNELS 3 Xrotation Yrotation Zrotation
								JOINT Head
								{
									OFFSET 0.000000 7.643700 -2.377400
									CHANNELS 3 Xrotation Yrotation Zrotation
									JOINT HeadTop_End
									{
										OFFSET 0.000000 43.788605 -13.619600
										CHANNELS 3 Xrotation Yrotation Zrotation
										End Site
										{
											OFFSET 0 0 0
										}
									}
								}
							}
						}
						JOINT LeftShoulder_virtual
						{
							OFFSET 0.000000 0.000000 0.000000
							CHANNELS 3 Xrotation Yrotation Zrotation
							JOINT LeftShoulder
							{
								OFFSET 2.196100 4.412489 0.087492
								CHANNELS 3 Xrotation Yrotation Zrotation
								JOINT LeftShoulder_split
								{
									OFFSET 2.196100 4.412489 0.087492
									CHANNELS 3 Xrotation Yrotation Zrotation
									JOINT LeftArm
									{
										OFFSET 8.771219 -2.981674 -0.026999
										CHANNELS 3 Xrotation Yrotation Zrotation
										JOINT LeftForeArm
										{
											OFFSET 8.512804 0.000000 -0.000000
											CHANNELS 3 Xrotation Yrotation Zrotation
											JOINT LeftHand
											{
												OFFSET 18.484802 0.000000 -0.000000
												CHANNELS 3 Xrotation Yrotation Zrotation
												End Site
												{
													OFFSET 0 0 0
												}
											}
										}
									}
								}
							}
						}
						JOINT RightShoulder_virtual
						{
							OFFSET 0.000000 0.000000 0.000000
							CHANNELS 3 Xrotation Yrotation Zrotation
							JOINT RightShoulder
							{
								OFFSET -2.196100 4.412496 0.070690
								CHANNELS 3 Xrotation Yrotation Zrotation
								JOINT RightShoulder_split
								{
									OFFSET -2.196100 4.412496 0.070690
									CHANNELS 3 Xrotation Yrotation Zrotation
									JOINT RightArm
									{
										OFFSET -8.771282 -2.981682 -0.094208
										CHANNELS 3 Xrotation Yrotation Zrotation
										JOINT RightForeArm
										{
											OFFSET -8.494598 0.000000 0.000000
											CHANNELS 3 Xrotation Yrotation Zrotation
											JOINT RightHand
											{
												OFFSET -18.483803 0.000000 0.000001
												CHANNELS 3 Xrotation Yrotation Zrotation
												End Site
												{
													OFFSET 0 0 0
												}
											}
										}
									}
								}
							}
						}
					}
				}
			}
		}
	}
}
MOTION
Frames: 8
Frame Time: 0.03333333
-0.417068 6.339403 3.686243 0.000000 0.000000 0.000000 -88.615318 -3.448983 -2.211258 -23.216619 15.129192 -5.251123 30.498195 -6.173218 -2.928455 -1.508158 6.801377 10.755910 8.715776 -0.200008 2.119467 0.000000 0.000000 0.000000 -90.324081 -3.849395 -5.093505 -8.524799 -7.093159 -5.339493 12.761967 0.362069 5.744243 8.897384 -4.903335 25.393117 -1.787949 -1.864308 -1.145275 0.000000 0.000000 0.000000 -86.612980 -3.895241 -4.668431 2.553383 2.943778 0.811749 -1.478396 0.965430 -0.154616 0.517848 0.535979 -0.303413 0.000000 0.000000 0.000000 -2.422546 0.491942 0.172135 2.642773 1.367112 0.012043 7.378451 1.619048 12.524660 0.000000 0.000000 0.000000 -3.164441 1.133529 0.067146 1.063687 -15.551205 -2.192847 -3.083862 0.289525 -4.014487 28.620958 0.587063 -71.084716 -178.743906 -39.960360 -178.325680 0.000000 0.000000 0.000000 -2.227969 0.843597 -0.783545 1.136446 1.964788 0.580097 1.031579 4.778651 0.207561 14.143871 6.366543 72.343950 -179.742425 46.078877 -179.313107 0.000000 0.000000 0.000000 
-0.418231 6.337887 3.695089 0.000000 0.000000 0.000000 -88.619983 -3.442836 -2.206403 -23.240429 15.111022 -5.242923 30.551884 -6.175090 -2.946841 -1.536900 6.769916 10.786072 8.715736 -0.202431 2.118801 0.000000 0.000000 0.000000 -90.320011 -3.837844 -5.082280 -8.544563 -7.101346 -5.345549 12.867404 0.360101 5.746082 8.832658 -4.906947 25.416483 -1.731877 -1.861565 -1.153144 0.000000 0.000000 0.000000 -86.616060 -3.890801 -4.662640 2.555335 2.935856 0.820887 -1.480331 0.964215 -0.158524 0.526942 0.536358 -0.298897 0.000000 0.000000 0.000000 -2.428687 0.494509 0.171403 2.688050 1.374094 0.003863 7.426485 1.034251 12.601664 0.000000 0.000000 0.000000 -3.164331 1.132865 0.070974 1.066984 -15.561046 -2.181840 -3.082284 0.314018 -4.030700 28.609048 0.683042 -71.108266 -178.726735 -39.811383 -178.289152 0.000000 0.000000 0.000000 -2.245431 0.837276 -0.782599 1.137031 2.027540 0.571006 1.019284 4.762002 0.208976 14.065818 6.348639 72.398591 -179.741810 46.064479 -179.321521 0.000000 0.000000 0.000000 
-0.418849 6.336699 3.704723 0.000000 0.000000 0.000000 -88.622661 -3.429050 -2.205498 -23.269879 15.106049 -5.229817 30.616958 -6.174745 -2.969581 -1.576340 6.734317 10.831132 8.711596 -0.204437 2.119216 0.000000 0.000000 0.000000 -90.321322 -3.822926 -5.079347 -8.550393 -7.108300 -5.347080 12.954923 0.359686 5.748677 8.768582 -4.901776 25.447815 -1.681499 -1.858134 -1.164249 0.000000 0.000000 0.000000 -86.617782 -3.886314 -4.663620 2.562193 2.933223 0.839751 -1.482774 0.965566 -0.160193 0.534632 0.531580 -0.302358 0.000000 0.000000 0.000000 -2.432365 0.499802 0.170967 2.720200 1.386802 0.001729 7.479499 0.553950 12.644412 0.000000 0.000000 0.000000 -3.163023 1.134914 0.076866 1.066508 -15.562784 -2.192542 -3.065959 0.333680 -4.036956 28.529114 0.765202 -71.111558 -178.712173 -39.692377 -178.259495 0.000000 0.000000 0.000000 -2.260089 0.833758 -0.781672 1.138486 2.073743 0.567666 1.005466 4.752527 0.213293 13.992429 6.358275 72.460890 -179.744693 46.076634 -179.321836 0.000000 0.000000 0.000000 
-0.418672 6.336304 3.715246 0.000000 0.000000 0.000000 -88.621704 -3.409602 -2.205375 -23.301013 15.107166 -5.217851 30.681189 -6.176864 -2.991253 -1.618336 6.692932 10.879670 8.704655 -0.206226 2.122036 0.000000 0.000000 0.000000 -90.324355 -3.806607 -5.081746 -8.536970 -7.111902 -5.348689 13.011552 0.357682 5.751418 8.705692 -4.890449 25.489293 -1.636936 -1.854991 -1.176141 0.000000 0.000000 0.000000 -86.618779 -3.881586 -4.666728 2.572792 2.935536 0.861246 -1.484428 0.970019 -0.159610 0.532705 0.525959 -0.309695 0.000000 0.000000 0.000000 -2.432593 0.508248 0.170760 2.733564 1.393622 0.011791 7.528095 0.147179 12.671414 0.000000 0.000000 0.000000 -3.159457 1.140795 0.083559 1.063852 -15.561756 -2.223594 -3.041089 0.347867 -4.023208 28.422767 0.803471 -71.098677 -178.703321 -39.649754 -178.241204 0.000000 0.000000 0.000000 -2.268896 0.834231 -0.780946 1.139728 2.097493 0.566400 0.988541 4.745448 0.214040 13.926641 6.383252 72.516692 -179.750676 46.087197 -179.317724 0.000000 0.000000 0.000000 
-0.418247 6.336756 3.725754 0.000000 0.000000 0.000000 -88.618071 -3.391334 -2.207264 -23.332063 15.106198 -5.211674 30.739318 -6.190218 -3.005902 -1.650319 6.642905 10.916218 8.698362 -0.208156 2.127818 0.000000 0.000000 0.000000 -90.324717 -3.790571 -5.085533 -8.508787 -7.113386 -5.353860 13.041748 0.350418 5.753931 8.642403 -4.877630 25.542657 -1.598837 -1.853158 -1.185817 0.000000 0.000000 0.000000 -86.618349 -3.876533 -4.668982 2.586291 2.941866 0.879025 -1.484207 0.978568 -0.156943 0.526183 0.514481 -0.313525 0.000000 0.000000 0.000000 -2.429797 0.519399 0.170713 2.728455 1.387344 0.033189 7.571182 -0.210731 12.696102 0.000000 0.000000 0.000000 -3.153215 1.149376 0.088823 1.062219 -15.559564 -2.265222 -3.013722 0.357789 -4.001072 28.322213 0.789702 -71.075133 -178.699305 -39.710815 -178.231819 0.000000 0.000000 0.000000 -2.270910 0.839587 -0.779897 1.139778 2.097552 0.557308 0.972948 4.737139 0.218539 13.869411 6.405759 72.553200 -179.757260 46.073683 -179.313721 0.000000 0.000000 0.000000 
-0.417275 6.337193 3.735811 0.000000 0.000000 0.000000 -88.612675 -3.378833 -2.211319 -23.363482 15.100951 -5.211176 30.793201 -6.215051 -3.012455 -1.667274 6.584592 10.937282 8.697488 -0.210026 2.134415 0.000000 0.000000 0.000000 -90.323105 -3.777614 -5.089306 -8.473003 -7.114331 -5.365241 13.057713 0.336354 5.755966 8.573609 -4.869639 25.606144 -1.564172 -1.853102 -1.191330 0.000000 0.000000 0.000000 -86.616429 -3.872833 -4.668991 2.603123 2.950807 0.890174 -1.481384 0.990702 -0.152743 0.519034 0.500722 -0.318864 0.000000 0.000000 0.000000 -2.424779 0.532320 0.171334 2.708019 1.365845 0.061895 7.609045 -0.536504 12.726423 0.000000 0.000000 0.000000 -3.145603 1.159093 0.092073 1.062950 -15.548864 -2.308452 -2.990500 0.361398 -3.979492 28.249512 0.742554 -71.045237 -178.698444 -39.861261 -178.227011 0.000000 0.000000 0.000000 -2.267731 0.848429 -0.778480 1.139214 2.079173 0.535775 0.961389 4.733853 0.229403 13.825903 6.409190 72.569394 -179.764609 46.033877 -179.310361 0.000000 0.000000 0.000000 
-0.416084 6.337273 3.744707 0.000000 0.000000 0.000000 -88.607839 -3.373289 -2.216655 -23.400356 15.092389 -5.215243 30.848870 -6.244580 -3.011137 -1.669574 6.521360 10.945525 8.704653 -0.211228 2.138958 0.000000 0.000000 0.000000 -90.317135 -3.768180 -5.090791 -8.437855 -7.115659 -5.383144 13.075004 0.315091 5.756501 8.491861 -4.871148 25.678269 -1.526085 -1.855112 -1.192707 0.000000 0.000000 0.000000 -86.613929 -3.870432 -4.666937 2.621955 2.961080 0.895094 -1.476778 1.004201 -0.147152 0.513066 0.492908 -0.317326 0.000000 0.000000 0.000000 -2.419041 0.544708 0.172955 2.675856 1.331788 0.091156 7.642848 -0.833707 12.761999 0.000000 0.000000 0.000000 -3.137730 1.168445 0.094608 1.066223 -15.526637 -2.345608 -2.982892 0.360946 -3.970262 28.204093 0.698623 -71.020109 -178.697461 -40.037893 -178.218541 0.000000 0.000000 0.000000 -2.262301 0.858464 -0.775554 1.138661 2.052217 0.504663 0.958003 4.743383 0.245224 13.794506 6.392592 72.578540 -179.774677 45.984337 -179.304514 0.000000 0.000000 0.000000 
-0.414438 6.336952 3.752415 0.000000 0.000000 0.000000 -88.603973 -3.373507 -2.223086 -23.444022 15.083149 -5.222067 30.913252 -6.274380 -3.004259 -1.662317 6.456723 10.945038 8.714121 -0.211694 2.141208 0.000000 0.000000 0.000000 -90.308959 -3.763457 -5.091925 -8.410009 -7.116763 -5.403534 13.101817 0.287614 5.754903 8.396209 -4.883308 25.756537 -1.483613 -1.858180 -1.191821 0.000000 0.000000 0.000000 -86.609954 -3.869944 -4.664538 2.642965 2.971919 0.897772 -1.471653 1.016736 -0.140834 0.511065 0.491194 -0.314743 0.000000 0.000000 0.000000 -2.414429 0.555085 0.175898 2.638602 1.290646 0.114424 7.673169 -1.102877 12.798541 0.000000 0.000000 0.000000 -3.132744 1.175321 0.097578 1.071393 -15.486214 -2.369076 -2.979160 0.358218 -3.981319 28.165018 0.683683 -71.000663 -178.695507 -40.169319 -178.203829 0.000000 0.000000 0.000000 -2.258253 0.867639 -0.770716 1.139138 2.026850 0.468411 0.958873 4.765300 0.270163 13.776147 6.361639 72.597842 -179.787545 45.950415 -179.295976 0.000000 0.000000 0.000000 
